<svg xmlns="http://www.w3.org/2000/svg" xmlns:xlink="http://www.w3.org/1999/xlink" width="1265" zoomAndPan="magnify" viewBox="0 0 948.75 552.75" height="737" preserveAspectRatio="xMidYMid meet" version="1.0"><defs><g/></defs><g fill="#b52b2b" fill-opacity="0.4"><g transform="translate(342.61642, 243.308881)"><g><path d="M 64.484375 -21.921875 C 63.015625 -14.742188 59.726562 -9.015625 54.625 -4.734375 C 49.519531 -0.453125 43.289062 1.6875 35.9375 1.6875 C 30.144531 1.6875 24.910156 0.410156 20.234375 -2.140625 C 15.566406 -4.691406 11.867188 -8.429688 9.140625 -13.359375 C 6.421875 -18.296875 5.0625 -24.132812 5.0625 -30.875 C 5.0625 -37.882812 6.53125 -44.09375 9.46875 -49.5 C 12.414062 -54.90625 16.351562 -59.097656 21.28125 -62.078125 C 26.207031 -65.066406 31.570312 -66.5625 37.375 -66.5625 C 42.726562 -66.5625 47.394531 -65.4375 51.375 -63.1875 C 55.351562 -60.9375 58.378906 -57.90625 60.453125 -54.09375 C 62.535156 -50.289062 63.578125 -46.1875 63.578125 -41.78125 L 19.203125 -41.78125 C 19.460938 -35.289062 20.757812 -29.734375 23.09375 -25.109375 C 25.425781 -20.484375 28.472656 -17 32.234375 -14.65625 C 36.003906 -12.320312 40.140625 -11.15625 44.640625 -11.15625 C 48.867188 -11.15625 52.601562 -12.109375 55.84375 -14.015625 C 59.09375 -15.921875 61.539062 -18.554688 63.1875 -21.921875 Z M 32.4375 -62.796875 C 28.539062 -62.796875 25.378906 -61.257812 22.953125 -58.1875 C 20.535156 -55.125 19.285156 -50.648438 19.203125 -44.765625 L 46.328125 -44.765625 C 45.804688 -50.296875 44.351562 -54.679688 41.96875 -57.921875 C 39.59375 -61.171875 36.414062 -62.796875 32.4375 -62.796875 Z M 32.4375 -62.796875 "/></g></g></g><g fill="#b52b2b" fill-opacity="0.4"><g transform="translate(408.263739, 243.308881)"><g><path d="M 7.53125 -0.65625 C 8.65625 -2.289062 9.539062 -4.382812 10.1875 -6.9375 C 10.832031 -9.488281 11.15625 -12.28125 11.15625 -15.3125 L 11.15625 -74.46875 C 11.15625 -78.019531 10.765625 -80.921875 9.984375 -83.171875 C 9.210938 -85.421875 8.046875 -87.28125 6.484375 -88.75 L 6.484375 -89.390625 L 28.03125 -96.65625 L 28.671875 -96.65625 L 28.671875 -15.3125 C 28.671875 -12.28125 28.992188 -9.488281 29.640625 -6.9375 C 30.296875 -4.382812 31.1875 -2.289062 32.3125 -0.65625 L 32.3125 0 L 7.53125 0 Z M 7.53125 -0.65625 "/></g></g></g><g fill="#b52b2b" fill-opacity="0.4"><g transform="translate(444.849687, 243.308881)"><g><path d="M 7.53125 25.296875 C 8.65625 23.660156 9.539062 21.566406 10.1875 19.015625 C 10.832031 16.460938 11.15625 13.671875 11.15625 10.640625 L 11.15625 -44.375 C 11.15625 -47.914062 10.765625 -50.789062 9.984375 -53 C 9.210938 -55.207031 8.046875 -57.085938 6.484375 -58.640625 L 6.484375 -59.296875 L 28.03125 -66.5625 L 28.671875 -66.5625 L 28.671875 -54.890625 L 29.328125 -54.890625 C 31.398438 -58.515625 34.097656 -61.363281 37.421875 -63.4375 C 40.753906 -65.519531 44.539062 -66.5625 48.78125 -66.5625 C 54.0625 -66.5625 58.691406 -65.265625 62.671875 -62.671875 C 66.648438 -60.078125 69.71875 -56.378906 71.875 -51.578125 C 74.039062 -46.773438 75.125 -41.21875 75.125 -34.90625 C 75.125 -27.726562 73.71875 -21.367188 70.90625 -15.828125 C 68.09375 -10.296875 64.328125 -5.992188 59.609375 -2.921875 C 54.898438 0.148438 49.78125 1.6875 44.25 1.6875 C 37.757812 1.6875 32.566406 0.0859375 28.671875 -3.109375 L 28.671875 10.640625 C 28.671875 13.671875 28.992188 16.460938 29.640625 19.015625 C 30.296875 21.566406 31.1875 23.660156 32.3125 25.296875 L 32.3125 25.953125 L 7.53125 25.953125 Z M 41.65625 -2.078125 C 46.320312 -2.078125 49.972656 -4.628906 52.609375 -9.734375 C 55.253906 -14.835938 56.578125 -21.972656 56.578125 -31.140625 C 56.578125 -39.359375 55.171875 -45.800781 52.359375 -50.46875 C 49.546875 -55.144531 45.800781 -57.484375 41.125 -57.484375 C 37.757812 -57.484375 34.953125 -56.460938 32.703125 -54.421875 C 30.453125 -52.390625 29.109375 -49.773438 28.671875 -46.578125 L 28.671875 -15.3125 C 29.109375 -11.757812 30.472656 -8.664062 32.765625 -6.03125 C 35.054688 -3.394531 38.019531 -2.078125 41.65625 -2.078125 Z M 41.65625 -2.078125 "/></g></g></g><g fill="#b52b2b" fill-opacity="0.4"><g transform="translate(522.432922, 243.308881)"><g><path d="M 8.171875 -0.65625 C 9.296875 -2.289062 10.179688 -4.382812 10.828125 -6.9375 C 11.484375 -9.488281 11.8125 -12.28125 11.8125 -15.3125 L 11.8125 -44.375 C 11.8125 -47.914062 11.421875 -50.789062 10.640625 -53 C 9.859375 -55.207031 8.691406 -57.085938 7.140625 -58.640625 L 7.140625 -59.296875 L 28.671875 -66.5625 L 29.328125 -66.5625 L 29.328125 -15.3125 C 29.328125 -12.28125 29.648438 -9.488281 30.296875 -6.9375 C 30.941406 -4.382812 31.828125 -2.289062 32.953125 -0.65625 L 32.953125 0 L 8.171875 0 Z M 20.5 -73.953125 C 17.550781 -73.953125 15.082031 -74.945312 13.09375 -76.9375 C 11.101562 -78.925781 10.109375 -81.394531 10.109375 -84.34375 C 10.109375 -87.28125 11.101562 -89.742188 13.09375 -91.734375 C 15.082031 -93.722656 17.550781 -94.71875 20.5 -94.71875 C 23.4375 -94.71875 25.898438 -93.722656 27.890625 -91.734375 C 29.878906 -89.742188 30.875 -87.28125 30.875 -84.34375 C 30.875 -81.394531 29.878906 -78.925781 27.890625 -76.9375 C 25.898438 -74.945312 23.4375 -73.953125 20.5 -73.953125 Z M 20.5 -73.953125 "/></g></g></g><g fill="#b52b2b" fill-opacity="0.4"><g transform="translate(560.056792, 243.308881)"><g><path d="M 8.171875 -0.65625 C 9.296875 -2.289062 10.179688 -4.382812 10.828125 -6.9375 C 11.484375 -9.488281 11.8125 -12.28125 11.8125 -15.3125 L 11.8125 -44.375 C 11.8125 -47.914062 11.421875 -50.789062 10.640625 -53 C 9.859375 -55.207031 8.691406 -57.085938 7.140625 -58.640625 L 7.140625 -59.296875 L 28.671875 -66.5625 L 29.328125 -66.5625 L 29.328125 -53.84375 L 29.96875 -53.84375 C 31.695312 -57.5625 34.332031 -60.609375 37.875 -62.984375 C 41.425781 -65.367188 45.582031 -66.5625 50.34375 -66.5625 C 56.65625 -66.5625 61.710938 -64.523438 65.515625 -60.453125 C 69.328125 -56.390625 71.234375 -51.117188 71.234375 -44.640625 L 71.234375 -15.3125 C 71.234375 -12.28125 71.554688 -9.488281 72.203125 -6.9375 C 72.847656 -4.382812 73.734375 -2.289062 74.859375 -0.65625 L 74.859375 0 L 50.078125 0 L 50.078125 -0.65625 C 51.203125 -2.289062 52.085938 -4.382812 52.734375 -6.9375 C 53.390625 -9.488281 53.71875 -12.28125 53.71875 -15.3125 L 53.71875 -44.25 C 53.71875 -47.789062 52.632812 -50.707031 50.46875 -53 C 48.3125 -55.289062 45.457031 -56.4375 41.90625 -56.4375 C 38.445312 -56.4375 35.484375 -55.3125 33.015625 -53.0625 C 30.554688 -50.8125 29.328125 -47.875 29.328125 -44.25 L 29.328125 -15.3125 C 29.328125 -12.28125 29.648438 -9.488281 30.296875 -6.9375 C 30.941406 -4.382812 31.828125 -2.289062 32.953125 -0.65625 L 32.953125 0 L 8.171875 0 Z M 8.171875 -0.65625 "/></g></g></g><g fill="#b52b2b" fill-opacity="0.4"><g transform="translate(638.937418, 243.308881)"><g><path d="M 70.578125 -61.625 C 66.953125 -61.625 64.035156 -61.429688 61.828125 -61.046875 C 59.617188 -60.660156 57.691406 -59.988281 56.046875 -59.03125 C 60.117188 -55.144531 62.15625 -50.347656 62.15625 -44.640625 C 62.15625 -40.304688 60.960938 -36.472656 58.578125 -33.140625 C 56.203125 -29.816406 52.9375 -27.242188 48.78125 -25.421875 C 44.632812 -23.609375 39.921875 -22.703125 34.640625 -22.703125 C 27.984375 -22.703125 22.234375 -24.085938 17.390625 -26.859375 C 16.003906 -25.296875 15.3125 -23.695312 15.3125 -22.0625 C 15.3125 -19.976562 16.109375 -18.460938 17.703125 -17.515625 C 19.304688 -16.566406 21.363281 -15.941406 23.875 -15.640625 C 26.382812 -15.335938 29.84375 -15.140625 34.25 -15.046875 C 41 -14.878906 46.6875 -14.335938 51.3125 -13.421875 C 55.9375 -12.515625 59.65625 -10.785156 62.46875 -8.234375 C 65.28125 -5.679688 66.6875 -2.070312 66.6875 2.59375 C 66.6875 7.257812 65.019531 11.472656 61.6875 15.234375 C 58.363281 19.003906 53.910156 21.945312 48.328125 24.0625 C 42.753906 26.1875 36.632812 27.25 29.96875 27.25 C 21.582031 27.25 15.222656 25.691406 10.890625 22.578125 C 6.566406 19.460938 4.40625 15.179688 4.40625 9.734375 C 4.40625 4.367188 6.742188 -0.257812 11.421875 -4.15625 C 8.222656 -6.75 6.625 -10.164062 6.625 -14.40625 C 6.625 -19.769531 9.476562 -24.441406 15.1875 -28.421875 C 12.5 -30.316406 10.441406 -32.648438 9.015625 -35.421875 C 7.585938 -38.191406 6.875 -41.265625 6.875 -44.640625 C 6.875 -48.960938 8.0625 -52.785156 10.4375 -56.109375 C 12.820312 -59.441406 16.109375 -62.015625 20.296875 -63.828125 C 24.492188 -65.648438 29.234375 -66.5625 34.515625 -66.5625 C 42.640625 -66.5625 49.253906 -64.570312 54.359375 -60.59375 C 57.390625 -68.976562 62.796875 -73.171875 70.578125 -73.171875 Z M 34.515625 -25.6875 C 37.972656 -25.6875 40.648438 -27.328125 42.546875 -30.609375 C 44.453125 -33.898438 45.40625 -38.578125 45.40625 -44.640625 C 45.40625 -50.609375 44.453125 -55.253906 42.546875 -58.578125 C 40.648438 -61.910156 37.972656 -63.578125 34.515625 -63.578125 C 31.140625 -63.578125 28.476562 -61.910156 26.53125 -58.578125 C 24.582031 -55.253906 23.609375 -50.609375 23.609375 -44.640625 C 23.609375 -38.671875 24.582031 -34.019531 26.53125 -30.6875 C 28.476562 -27.351562 31.140625 -25.6875 34.515625 -25.6875 Z M 13.625 -2.46875 C 12.925781 -1.164062 12.578125 0.519531 12.578125 2.59375 C 12.578125 5.882812 13.851562 8.976562 16.40625 11.875 C 18.957031 14.769531 22.375 17.082031 26.65625 18.8125 C 30.945312 20.539062 35.597656 21.40625 40.609375 21.40625 C 45.972656 21.40625 50.382812 20.390625 53.84375 18.359375 C 57.300781 16.328125 59.03125 13.664062 59.03125 10.375 C 59.03125 8.21875 58.40625 6.53125 57.15625 5.3125 C 55.90625 4.101562 53.804688 3.21875 50.859375 2.65625 C 47.921875 2.09375 43.679688 1.726562 38.140625 1.5625 C 32.347656 1.382812 27.675781 1.097656 24.125 0.703125 C 20.582031 0.316406 17.6875 -0.4375 15.4375 -1.5625 Z M 13.625 -2.46875 "/></g></g></g><g fill="#b52b2b" fill-opacity="1"><g transform="translate(339.175915, 239.868376)"><g><path d="M 64.484375 -21.921875 C 63.015625 -14.742188 59.726562 -9.015625 54.625 -4.734375 C 49.519531 -0.453125 43.289062 1.6875 35.9375 1.6875 C 30.144531 1.6875 24.910156 0.410156 20.234375 -2.140625 C 15.566406 -4.691406 11.867188 -8.429688 9.140625 -13.359375 C 6.421875 -18.296875 5.0625 -24.132812 5.0625 -30.875 C 5.0625 -37.882812 6.53125 -44.09375 9.46875 -49.5 C 12.414062 -54.90625 16.351562 -59.097656 21.28125 -62.078125 C 26.207031 -65.066406 31.570312 -66.5625 37.375 -66.5625 C 42.726562 -66.5625 47.394531 -65.4375 51.375 -63.1875 C 55.351562 -60.9375 58.378906 -57.90625 60.453125 -54.09375 C 62.535156 -50.289062 63.578125 -46.1875 63.578125 -41.78125 L 19.203125 -41.78125 C 19.460938 -35.289062 20.757812 -29.734375 23.09375 -25.109375 C 25.425781 -20.484375 28.472656 -17 32.234375 -14.65625 C 36.003906 -12.320312 40.140625 -11.15625 44.640625 -11.15625 C 48.867188 -11.15625 52.601562 -12.109375 55.84375 -14.015625 C 59.09375 -15.921875 61.539062 -18.554688 63.1875 -21.921875 Z M 32.4375 -62.796875 C 28.539062 -62.796875 25.378906 -61.257812 22.953125 -58.1875 C 20.535156 -55.125 19.285156 -50.648438 19.203125 -44.765625 L 46.328125 -44.765625 C 45.804688 -50.296875 44.351562 -54.679688 41.96875 -57.921875 C 39.59375 -61.171875 36.414062 -62.796875 32.4375 -62.796875 Z M 32.4375 -62.796875 "/></g></g></g><g fill="#b52b2b" fill-opacity="1"><g transform="translate(404.823234, 239.868376)"><g><path d="M 7.53125 -0.65625 C 8.65625 -2.289062 9.539062 -4.382812 10.1875 -6.9375 C 10.832031 -9.488281 11.15625 -12.28125 11.15625 -15.3125 L 11.15625 -74.46875 C 11.15625 -78.019531 10.765625 -80.921875 9.984375 -83.171875 C 9.210938 -85.421875 8.046875 -87.28125 6.484375 -88.75 L 6.484375 -89.390625 L 28.03125 -96.65625 L 28.671875 -96.65625 L 28.671875 -15.3125 C 28.671875 -12.28125 28.992188 -9.488281 29.640625 -6.9375 C 30.296875 -4.382812 31.1875 -2.289062 32.3125 -0.65625 L 32.3125 0 L 7.53125 0 Z M 7.53125 -0.65625 "/></g></g></g><g fill="#b52b2b" fill-opacity="1"><g transform="translate(441.409182, 239.868376)"><g><path d="M 7.53125 25.296875 C 8.65625 23.660156 9.539062 21.566406 10.1875 19.015625 C 10.832031 16.460938 11.15625 13.671875 11.15625 10.640625 L 11.15625 -44.375 C 11.15625 -47.914062 10.765625 -50.789062 9.984375 -53 C 9.210938 -55.207031 8.046875 -57.085938 6.484375 -58.640625 L 6.484375 -59.296875 L 28.03125 -66.5625 L 28.671875 -66.5625 L 28.671875 -54.890625 L 29.328125 -54.890625 C 31.398438 -58.515625 34.097656 -61.363281 37.421875 -63.4375 C 40.753906 -65.519531 44.539062 -66.5625 48.78125 -66.5625 C 54.0625 -66.5625 58.691406 -65.265625 62.671875 -62.671875 C 66.648438 -60.078125 69.71875 -56.378906 71.875 -51.578125 C 74.039062 -46.773438 75.125 -41.21875 75.125 -34.90625 C 75.125 -27.726562 73.71875 -21.367188 70.90625 -15.828125 C 68.09375 -10.296875 64.328125 -5.992188 59.609375 -2.921875 C 54.898438 0.148438 49.78125 1.6875 44.25 1.6875 C 37.757812 1.6875 32.566406 0.0859375 28.671875 -3.109375 L 28.671875 10.640625 C 28.671875 13.671875 28.992188 16.460938 29.640625 19.015625 C 30.296875 21.566406 31.1875 23.660156 32.3125 25.296875 L 32.3125 25.953125 L 7.53125 25.953125 Z M 41.65625 -2.078125 C 46.320312 -2.078125 49.972656 -4.628906 52.609375 -9.734375 C 55.253906 -14.835938 56.578125 -21.972656 56.578125 -31.140625 C 56.578125 -39.359375 55.171875 -45.800781 52.359375 -50.46875 C 49.546875 -55.144531 45.800781 -57.484375 41.125 -57.484375 C 37.757812 -57.484375 34.953125 -56.460938 32.703125 -54.421875 C 30.453125 -52.390625 29.109375 -49.773438 28.671875 -46.578125 L 28.671875 -15.3125 C 29.109375 -11.757812 30.472656 -8.664062 32.765625 -6.03125 C 35.054688 -3.394531 38.019531 -2.078125 41.65625 -2.078125 Z M 41.65625 -2.078125 "/></g></g></g><g fill="#b52b2b" fill-opacity="1"><g transform="translate(518.992418, 239.868376)"><g><path d="M 8.171875 -0.65625 C 9.296875 -2.289062 10.179688 -4.382812 10.828125 -6.9375 C 11.484375 -9.488281 11.8125 -12.28125 11.8125 -15.3125 L 11.8125 -44.375 C 11.8125 -47.914062 11.421875 -50.789062 10.640625 -53 C 9.859375 -55.207031 8.691406 -57.085938 7.140625 -58.640625 L 7.140625 -59.296875 L 28.671875 -66.5625 L 29.328125 -66.5625 L 29.328125 -15.3125 C 29.328125 -12.28125 29.648438 -9.488281 30.296875 -6.9375 C 30.941406 -4.382812 31.828125 -2.289062 32.953125 -0.65625 L 32.953125 0 L 8.171875 0 Z M 20.5 -73.953125 C 17.550781 -73.953125 15.082031 -74.945312 13.09375 -76.9375 C 11.101562 -78.925781 10.109375 -81.394531 10.109375 -84.34375 C 10.109375 -87.28125 11.101562 -89.742188 13.09375 -91.734375 C 15.082031 -93.722656 17.550781 -94.71875 20.5 -94.71875 C 23.4375 -94.71875 25.898438 -93.722656 27.890625 -91.734375 C 29.878906 -89.742188 30.875 -87.28125 30.875 -84.34375 C 30.875 -81.394531 29.878906 -78.925781 27.890625 -76.9375 C 25.898438 -74.945312 23.4375 -73.953125 20.5 -73.953125 Z M 20.5 -73.953125 "/></g></g></g><g fill="#b52b2b" fill-opacity="1"><g transform="translate(556.616288, 239.868376)"><g><path d="M 8.171875 -0.65625 C 9.296875 -2.289062 10.179688 -4.382812 10.828125 -6.9375 C 11.484375 -9.488281 11.8125 -12.28125 11.8125 -15.3125 L 11.8125 -44.375 C 11.8125 -47.914062 11.421875 -50.789062 10.640625 -53 C 9.859375 -55.207031 8.691406 -57.085938 7.140625 -58.640625 L 7.140625 -59.296875 L 28.671875 -66.5625 L 29.328125 -66.5625 L 29.328125 -53.84375 L 29.96875 -53.84375 C 31.695312 -57.5625 34.332031 -60.609375 37.875 -62.984375 C 41.425781 -65.367188 45.582031 -66.5625 50.34375 -66.5625 C 56.65625 -66.5625 61.710938 -64.523438 65.515625 -60.453125 C 69.328125 -56.390625 71.234375 -51.117188 71.234375 -44.640625 L 71.234375 -15.3125 C 71.234375 -12.28125 71.554688 -9.488281 72.203125 -6.9375 C 72.847656 -4.382812 73.734375 -2.289062 74.859375 -0.65625 L 74.859375 0 L 50.078125 0 L 50.078125 -0.65625 C 51.203125 -2.289062 52.085938 -4.382812 52.734375 -6.9375 C 53.390625 -9.488281 53.71875 -12.28125 53.71875 -15.3125 L 53.71875 -44.25 C 53.71875 -47.789062 52.632812 -50.707031 50.46875 -53 C 48.3125 -55.289062 45.457031 -56.4375 41.90625 -56.4375 C 38.445312 -56.4375 35.484375 -55.3125 33.015625 -53.0625 C 30.554688 -50.8125 29.328125 -47.875 29.328125 -44.25 L 29.328125 -15.3125 C 29.328125 -12.28125 29.648438 -9.488281 30.296875 -6.9375 C 30.941406 -4.382812 31.828125 -2.289062 32.953125 -0.65625 L 32.953125 0 L 8.171875 0 Z M 8.171875 -0.65625 "/></g></g></g><g fill="#b52b2b" fill-opacity="1"><g transform="translate(635.496914, 239.868376)"><g><path d="M 70.578125 -61.625 C 66.953125 -61.625 64.035156 -61.429688 61.828125 -61.046875 C 59.617188 -60.660156 57.691406 -59.988281 56.046875 -59.03125 C 60.117188 -55.144531 62.15625 -50.347656 62.15625 -44.640625 C 62.15625 -40.304688 60.960938 -36.472656 58.578125 -33.140625 C 56.203125 -29.816406 52.9375 -27.242188 48.78125 -25.421875 C 44.632812 -23.609375 39.921875 -22.703125 34.640625 -22.703125 C 27.984375 -22.703125 22.234375 -24.085938 17.390625 -26.859375 C 16.003906 -25.296875 15.3125 -23.695312 15.3125 -22.0625 C 15.3125 -19.976562 16.109375 -18.460938 17.703125 -17.515625 C 19.304688 -16.566406 21.363281 -15.941406 23.875 -15.640625 C 26.382812 -15.335938 29.84375 -15.140625 34.25 -15.046875 C 41 -14.878906 46.6875 -14.335938 51.3125 -13.421875 C 55.9375 -12.515625 59.65625 -10.785156 62.46875 -8.234375 C 65.28125 -5.679688 66.6875 -2.070312 66.6875 2.59375 C 66.6875 7.257812 65.019531 11.472656 61.6875 15.234375 C 58.363281 19.003906 53.910156 21.945312 48.328125 24.0625 C 42.753906 26.1875 36.632812 27.25 29.96875 27.25 C 21.582031 27.25 15.222656 25.691406 10.890625 22.578125 C 6.566406 19.460938 4.40625 15.179688 4.40625 9.734375 C 4.40625 4.367188 6.742188 -0.257812 11.421875 -4.15625 C 8.222656 -6.75 6.625 -10.164062 6.625 -14.40625 C 6.625 -19.769531 9.476562 -24.441406 15.1875 -28.421875 C 12.5 -30.316406 10.441406 -32.648438 9.015625 -35.421875 C 7.585938 -38.191406 6.875 -41.265625 6.875 -44.640625 C 6.875 -48.960938 8.0625 -52.785156 10.4375 -56.109375 C 12.820312 -59.441406 16.109375 -62.015625 20.296875 -63.828125 C 24.492188 -65.648438 29.234375 -66.5625 34.515625 -66.5625 C 42.640625 -66.5625 49.253906 -64.570312 54.359375 -60.59375 C 57.390625 -68.976562 62.796875 -73.171875 70.578125 -73.171875 Z M 34.515625 -25.6875 C 37.972656 -25.6875 40.648438 -27.328125 42.546875 -30.609375 C 44.453125 -33.898438 45.40625 -38.578125 45.40625 -44.640625 C 45.40625 -50.609375 44.453125 -55.253906 42.546875 -58.578125 C 40.648438 -61.910156 37.972656 -63.578125 34.515625 -63.578125 C 31.140625 -63.578125 28.476562 -61.910156 26.53125 -58.578125 C 24.582031 -55.253906 23.609375 -50.609375 23.609375 -44.640625 C 23.609375 -38.671875 24.582031 -34.019531 26.53125 -30.6875 C 28.476562 -27.351562 31.140625 -25.6875 34.515625 -25.6875 Z M 13.625 -2.46875 C 12.925781 -1.164062 12.578125 0.519531 12.578125 2.59375 C 12.578125 5.882812 13.851562 8.976562 16.40625 11.875 C 18.957031 14.769531 22.375 17.082031 26.65625 18.8125 C 30.945312 20.539062 35.597656 21.40625 40.609375 21.40625 C 45.972656 21.40625 50.382812 20.390625 53.84375 18.359375 C 57.300781 16.328125 59.03125 13.664062 59.03125 10.375 C 59.03125 8.21875 58.40625 6.53125 57.15625 5.3125 C 55.90625 4.101562 53.804688 3.21875 50.859375 2.65625 C 47.921875 2.09375 43.679688 1.726562 38.140625 1.5625 C 32.347656 1.382812 27.675781 1.097656 24.125 0.703125 C 20.582031 0.316406 17.6875 -0.4375 15.4375 -1.5625 Z M 13.625 -2.46875 "/></g></g></g><g fill="#b52b2b" fill-opacity="0.4"><g transform="translate(457.861856, 396.098116)"><g><path d="M 64.484375 -21.921875 C 63.015625 -14.742188 59.726562 -9.015625 54.625 -4.734375 C 49.519531 -0.453125 43.289062 1.6875 35.9375 1.6875 C 30.144531 1.6875 24.910156 0.410156 20.234375 -2.140625 C 15.566406 -4.691406 11.867188 -8.429688 9.140625 -13.359375 C 6.421875 -18.296875 5.0625 -24.132812 5.0625 -30.875 C 5.0625 -37.882812 6.53125 -44.09375 9.46875 -49.5 C 12.414062 -54.90625 16.351562 -59.097656 21.28125 -62.078125 C 26.207031 -65.066406 31.570312 -66.5625 37.375 -66.5625 C 42.726562 -66.5625 47.394531 -65.4375 51.375 -63.1875 C 55.351562 -60.9375 58.378906 -57.90625 60.453125 -54.09375 C 62.535156 -50.289062 63.578125 -46.1875 63.578125 -41.78125 L 19.203125 -41.78125 C 19.460938 -35.289062 20.757812 -29.734375 23.09375 -25.109375 C 25.425781 -20.484375 28.472656 -17 32.234375 -14.65625 C 36.003906 -12.320312 40.140625 -11.15625 44.640625 -11.15625 C 48.867188 -11.15625 52.601562 -12.109375 55.84375 -14.015625 C 59.09375 -15.921875 61.539062 -18.554688 63.1875 -21.921875 Z M 32.4375 -62.796875 C 28.539062 -62.796875 25.378906 -61.257812 22.953125 -58.1875 C 20.535156 -55.125 19.285156 -50.648438 19.203125 -44.765625 L 46.328125 -44.765625 C 45.804688 -50.296875 44.351562 -54.679688 41.96875 -57.921875 C 39.59375 -61.171875 36.414062 -62.796875 32.4375 -62.796875 Z M 32.4375 -62.796875 "/></g></g></g><g fill="#b52b2b" fill-opacity="0.4"><g transform="translate(523.512825, 396.098116)"><g><path d="M 66.5625 -4.546875 C 65.519531 -2.640625 63.851562 -1.125 61.5625 0 C 59.269531 1.125 56.695312 1.6875 53.84375 1.6875 C 50.207031 1.6875 47.285156 0.84375 45.078125 -0.84375 C 42.878906 -2.53125 41.5625 -4.84375 41.125 -7.78125 L 41 -8.296875 L 40.609375 -8.296875 C 38.878906 -5.273438 36.519531 -2.851562 33.53125 -1.03125 C 30.550781 0.78125 26.8125 1.6875 22.3125 1.6875 C 17.039062 1.6875 12.910156 0.429688 9.921875 -2.078125 C 6.941406 -4.585938 5.453125 -8.003906 5.453125 -12.328125 C 5.453125 -17.085938 7.160156 -21.085938 10.578125 -24.328125 C 13.992188 -27.566406 18.425781 -29.960938 23.875 -31.515625 C 29.320312 -33.078125 35.070312 -33.859375 41.125 -33.859375 L 41.125 -41.90625 C 41.125 -46.75 39.65625 -50.660156 36.71875 -53.640625 C 33.78125 -56.628906 29.757812 -58.125 24.65625 -58.125 C 20.9375 -58.125 17.625 -57.257812 14.71875 -55.53125 C 11.820312 -53.800781 9.554688 -51.378906 7.921875 -48.265625 L 6.625 -48.265625 C 8.09375 -53.890625 11.179688 -58.34375 15.890625 -61.625 C 20.609375 -64.914062 26.164062 -66.5625 32.5625 -66.5625 C 40.695312 -66.5625 47.078125 -64.289062 51.703125 -59.75 C 56.328125 -55.207031 58.640625 -49.257812 58.640625 -41.90625 L 58.640625 -9.34375 C 58.640625 -7.53125 59.03125 -6.210938 59.8125 -5.390625 C 60.59375 -4.566406 61.546875 -4.15625 62.671875 -4.15625 C 64.316406 -4.15625 65.394531 -4.5 65.90625 -5.1875 Z M 31.78125 -6.75 C 34.46875 -6.75 36.695312 -7.65625 38.46875 -9.46875 C 40.238281 -11.289062 41.125 -13.453125 41.125 -15.953125 L 41.125 -30.875 C 35.769531 -30.707031 31.507812 -29.367188 28.34375 -26.859375 C 25.1875 -24.347656 23.609375 -20.890625 23.609375 -16.484375 C 23.609375 -13.191406 24.382812 -10.742188 25.9375 -9.140625 C 27.5 -7.546875 29.445312 -6.75 31.78125 -6.75 Z M 31.78125 -6.75 "/></g></g></g><g fill="#b52b2b" fill-opacity="0.4"><g transform="translate(589.163795, 396.098116)"><g><path d="M 8.171875 -0.65625 C 9.296875 -2.289062 10.179688 -4.382812 10.828125 -6.9375 C 11.484375 -9.488281 11.8125 -12.28125 11.8125 -15.3125 L 11.8125 -44.375 C 11.8125 -47.914062 11.421875 -50.789062 10.640625 -53 C 9.859375 -55.207031 8.691406 -57.085938 7.140625 -58.640625 L 7.140625 -59.296875 L 28.671875 -66.5625 L 29.328125 -66.5625 L 29.328125 -48.78125 L 29.96875 -48.78125 C 31.4375 -54.488281 33.96875 -58.878906 37.5625 -61.953125 C 41.15625 -65.023438 46.191406 -66.5625 52.671875 -66.5625 L 52.671875 -50.34375 L 45.15625 -50.34375 C 39.707031 -50.34375 35.707031 -49.21875 33.15625 -46.96875 C 30.601562 -44.71875 29.328125 -40.910156 29.328125 -35.546875 L 29.328125 -15.3125 C 29.328125 -12.28125 29.648438 -9.488281 30.296875 -6.9375 C 30.941406 -4.382812 31.828125 -2.289062 32.953125 -0.65625 L 32.953125 0 L 8.171875 0 Z M 8.171875 -0.65625 "/></g></g></g><g fill="#b52b2b" fill-opacity="0.4"><g transform="translate(640.413057, 396.098116)"><g><path d="M 30.234375 1.6875 C 24.609375 1.6875 19.890625 -0.101562 16.078125 -3.6875 C 12.273438 -7.28125 10.375 -12.109375 10.375 -18.171875 L 10.375 -52.421875 C 10.375 -54.753906 9.832031 -56.675781 8.75 -58.1875 C 7.675781 -59.707031 6.273438 -60.8125 4.546875 -61.5 L 4.546875 -62.15625 C 8.691406 -63.707031 12.710938 -65.953125 16.609375 -68.890625 C 20.503906 -71.835938 24.050781 -75.128906 27.25 -78.765625 L 27.890625 -78.765625 L 27.890625 -64.875 L 46.703125 -64.875 L 45.15625 -60.203125 L 27.890625 -60.203125 L 27.890625 -18.171875 C 27.890625 -14.273438 28.925781 -11.285156 31 -9.203125 C 33.082031 -7.128906 35.679688 -6.09375 38.796875 -6.09375 C 40.703125 -6.09375 42.34375 -6.414062 43.71875 -7.0625 C 45.101562 -7.71875 46.097656 -8.476562 46.703125 -9.34375 L 48 -8.6875 C 46.707031 -5.664062 44.457031 -3.179688 41.25 -1.234375 C 38.050781 0.710938 34.378906 1.6875 30.234375 1.6875 Z M 30.234375 1.6875 "/></g></g></g><g fill="#b52b2b" fill-opacity="0.4"><g transform="translate(685.694034, 396.098116)"><g><path d="M 30.234375 1.6875 C 21.492188 1.6875 13.878906 0.0859375 7.390625 -3.109375 L 7.390625 -22.453125 L 8.6875 -22.453125 C 10.164062 -18.210938 12.203125 -14.488281 14.796875 -11.28125 C 17.390625 -8.082031 20.242188 -5.660156 23.359375 -4.015625 C 26.472656 -2.378906 29.457031 -1.5625 32.3125 -1.5625 C 35.769531 -1.5625 38.578125 -2.597656 40.734375 -4.671875 C 42.898438 -6.742188 43.984375 -9.378906 43.984375 -12.578125 C 43.984375 -15.691406 42.835938 -18.113281 40.546875 -19.84375 C 38.253906 -21.582031 34.46875 -23.097656 29.1875 -24.390625 C 22.007812 -26.210938 16.453125 -28.722656 12.515625 -31.921875 C 8.585938 -35.117188 6.625 -39.789062 6.625 -45.9375 C 6.625 -52.164062 8.976562 -57.160156 13.6875 -60.921875 C 18.40625 -64.679688 24.394531 -66.5625 31.65625 -66.5625 C 37.96875 -66.5625 44.847656 -64.960938 52.296875 -61.765625 L 52.296875 -43.59375 L 50.984375 -43.59375 C 48.992188 -49.21875 45.945312 -53.910156 41.84375 -57.671875 C 37.738281 -61.429688 33.519531 -63.3125 29.1875 -63.3125 C 26.070312 -63.3125 23.539062 -62.40625 21.59375 -60.59375 C 19.65625 -58.78125 18.6875 -56.445312 18.6875 -53.59375 C 18.6875 -50.644531 19.851562 -48.328125 22.1875 -46.640625 C 24.519531 -44.953125 28.28125 -43.414062 33.46875 -42.03125 C 40.914062 -40.050781 46.601562 -37.394531 50.53125 -34.0625 C 54.46875 -30.726562 56.4375 -25.863281 56.4375 -19.46875 C 56.4375 -12.375 53.882812 -7.070312 48.78125 -3.5625 C 43.675781 -0.0625 37.492188 1.6875 30.234375 1.6875 Z M 30.234375 1.6875 "/></g></g></g><g fill="#b52b2b" fill-opacity="1"><g transform="translate(454.421351, 392.657612)"><g><path d="M 64.484375 -21.921875 C 63.015625 -14.742188 59.726562 -9.015625 54.625 -4.734375 C 49.519531 -0.453125 43.289062 1.6875 35.9375 1.6875 C 30.144531 1.6875 24.910156 0.410156 20.234375 -2.140625 C 15.566406 -4.691406 11.867188 -8.429688 9.140625 -13.359375 C 6.421875 -18.296875 5.0625 -24.132812 5.0625 -30.875 C 5.0625 -37.882812 6.53125 -44.09375 9.46875 -49.5 C 12.414062 -54.90625 16.351562 -59.097656 21.28125 -62.078125 C 26.207031 -65.066406 31.570312 -66.5625 37.375 -66.5625 C 42.726562 -66.5625 47.394531 -65.4375 51.375 -63.1875 C 55.351562 -60.9375 58.378906 -57.90625 60.453125 -54.09375 C 62.535156 -50.289062 63.578125 -46.1875 63.578125 -41.78125 L 19.203125 -41.78125 C 19.460938 -35.289062 20.757812 -29.734375 23.09375 -25.109375 C 25.425781 -20.484375 28.472656 -17 32.234375 -14.65625 C 36.003906 -12.320312 40.140625 -11.15625 44.640625 -11.15625 C 48.867188 -11.15625 52.601562 -12.109375 55.84375 -14.015625 C 59.09375 -15.921875 61.539062 -18.554688 63.1875 -21.921875 Z M 32.4375 -62.796875 C 28.539062 -62.796875 25.378906 -61.257812 22.953125 -58.1875 C 20.535156 -55.125 19.285156 -50.648438 19.203125 -44.765625 L 46.328125 -44.765625 C 45.804688 -50.296875 44.351562 -54.679688 41.96875 -57.921875 C 39.59375 -61.171875 36.414062 -62.796875 32.4375 -62.796875 Z M 32.4375 -62.796875 "/></g></g></g><g fill="#b52b2b" fill-opacity="1"><g transform="translate(520.072321, 392.657612)"><g><path d="M 66.5625 -4.546875 C 65.519531 -2.640625 63.851562 -1.125 61.5625 0 C 59.269531 1.125 56.695312 1.6875 53.84375 1.6875 C 50.207031 1.6875 47.285156 0.84375 45.078125 -0.84375 C 42.878906 -2.53125 41.5625 -4.84375 41.125 -7.78125 L 41 -8.296875 L 40.609375 -8.296875 C 38.878906 -5.273438 36.519531 -2.851562 33.53125 -1.03125 C 30.550781 0.78125 26.8125 1.6875 22.3125 1.6875 C 17.039062 1.6875 12.910156 0.429688 9.921875 -2.078125 C 6.941406 -4.585938 5.453125 -8.003906 5.453125 -12.328125 C 5.453125 -17.085938 7.160156 -21.085938 10.578125 -24.328125 C 13.992188 -27.566406 18.425781 -29.960938 23.875 -31.515625 C 29.320312 -33.078125 35.070312 -33.859375 41.125 -33.859375 L 41.125 -41.90625 C 41.125 -46.75 39.65625 -50.660156 36.71875 -53.640625 C 33.78125 -56.628906 29.757812 -58.125 24.65625 -58.125 C 20.9375 -58.125 17.625 -57.257812 14.71875 -55.53125 C 11.820312 -53.800781 9.554688 -51.378906 7.921875 -48.265625 L 6.625 -48.265625 C 8.09375 -53.890625 11.179688 -58.34375 15.890625 -61.625 C 20.609375 -64.914062 26.164062 -66.5625 32.5625 -66.5625 C 40.695312 -66.5625 47.078125 -64.289062 51.703125 -59.75 C 56.328125 -55.207031 58.640625 -49.257812 58.640625 -41.90625 L 58.640625 -9.34375 C 58.640625 -7.53125 59.03125 -6.210938 59.8125 -5.390625 C 60.59375 -4.566406 61.546875 -4.15625 62.671875 -4.15625 C 64.316406 -4.15625 65.394531 -4.5 65.90625 -5.1875 Z M 31.78125 -6.75 C 34.46875 -6.75 36.695312 -7.65625 38.46875 -9.46875 C 40.238281 -11.289062 41.125 -13.453125 41.125 -15.953125 L 41.125 -30.875 C 35.769531 -30.707031 31.507812 -29.367188 28.34375 -26.859375 C 25.1875 -24.347656 23.609375 -20.890625 23.609375 -16.484375 C 23.609375 -13.191406 24.382812 -10.742188 25.9375 -9.140625 C 27.5 -7.546875 29.445312 -6.75 31.78125 -6.75 Z M 31.78125 -6.75 "/></g></g></g><g fill="#b52b2b" fill-opacity="1"><g transform="translate(585.723291, 392.657612)"><g><path d="M 8.171875 -0.65625 C 9.296875 -2.289062 10.179688 -4.382812 10.828125 -6.9375 C 11.484375 -9.488281 11.8125 -12.28125 11.8125 -15.3125 L 11.8125 -44.375 C 11.8125 -47.914062 11.421875 -50.789062 10.640625 -53 C 9.859375 -55.207031 8.691406 -57.085938 7.140625 -58.640625 L 7.140625 -59.296875 L 28.671875 -66.5625 L 29.328125 -66.5625 L 29.328125 -48.78125 L 29.96875 -48.78125 C 31.4375 -54.488281 33.96875 -58.878906 37.5625 -61.953125 C 41.15625 -65.023438 46.191406 -66.5625 52.671875 -66.5625 L 52.671875 -50.34375 L 45.15625 -50.34375 C 39.707031 -50.34375 35.707031 -49.21875 33.15625 -46.96875 C 30.601562 -44.71875 29.328125 -40.910156 29.328125 -35.546875 L 29.328125 -15.3125 C 29.328125 -12.28125 29.648438 -9.488281 30.296875 -6.9375 C 30.941406 -4.382812 31.828125 -2.289062 32.953125 -0.65625 L 32.953125 0 L 8.171875 0 Z M 8.171875 -0.65625 "/></g></g></g><g fill="#b52b2b" fill-opacity="1"><g transform="translate(636.972552, 392.657612)"><g><path d="M 30.234375 1.6875 C 24.609375 1.6875 19.890625 -0.101562 16.078125 -3.6875 C 12.273438 -7.28125 10.375 -12.109375 10.375 -18.171875 L 10.375 -52.421875 C 10.375 -54.753906 9.832031 -56.675781 8.75 -58.1875 C 7.675781 -59.707031 6.273438 -60.8125 4.546875 -61.5 L 4.546875 -62.15625 C 8.691406 -63.707031 12.710938 -65.953125 16.609375 -68.890625 C 20.503906 -71.835938 24.050781 -75.128906 27.25 -78.765625 L 27.890625 -78.765625 L 27.890625 -64.875 L 46.703125 -64.875 L 45.15625 -60.203125 L 27.890625 -60.203125 L 27.890625 -18.171875 C 27.890625 -14.273438 28.925781 -11.285156 31 -9.203125 C 33.082031 -7.128906 35.679688 -6.09375 38.796875 -6.09375 C 40.703125 -6.09375 42.34375 -6.414062 43.71875 -7.0625 C 45.101562 -7.71875 46.097656 -8.476562 46.703125 -9.34375 L 48 -8.6875 C 46.707031 -5.664062 44.457031 -3.179688 41.25 -1.234375 C 38.050781 0.710938 34.378906 1.6875 30.234375 1.6875 Z M 30.234375 1.6875 "/></g></g></g><g fill="#b52b2b" fill-opacity="1"><g transform="translate(682.25353, 392.657612)"><g><path d="M 30.234375 1.6875 C 21.492188 1.6875 13.878906 0.0859375 7.390625 -3.109375 L 7.390625 -22.453125 L 8.6875 -22.453125 C 10.164062 -18.210938 12.203125 -14.488281 14.796875 -11.28125 C 17.390625 -8.082031 20.242188 -5.660156 23.359375 -4.015625 C 26.472656 -2.378906 29.457031 -1.5625 32.3125 -1.5625 C 35.769531 -1.5625 38.578125 -2.597656 40.734375 -4.671875 C 42.898438 -6.742188 43.984375 -9.378906 43.984375 -12.578125 C 43.984375 -15.691406 42.835938 -18.113281 40.546875 -19.84375 C 38.253906 -21.582031 34.46875 -23.097656 29.1875 -24.390625 C 22.007812 -26.210938 16.453125 -28.722656 12.515625 -31.921875 C 8.585938 -35.117188 6.625 -39.789062 6.625 -45.9375 C 6.625 -52.164062 8.976562 -57.160156 13.6875 -60.921875 C 18.40625 -64.679688 24.394531 -66.5625 31.65625 -66.5625 C 37.96875 -66.5625 44.847656 -64.960938 52.296875 -61.765625 L 52.296875 -43.59375 L 50.984375 -43.59375 C 48.992188 -49.21875 45.945312 -53.910156 41.84375 -57.671875 C 37.738281 -61.429688 33.519531 -63.3125 29.1875 -63.3125 C 26.070312 -63.3125 23.539062 -62.40625 21.59375 -60.59375 C 19.65625 -58.78125 18.6875 -56.445312 18.6875 -53.59375 C 18.6875 -50.644531 19.851562 -48.328125 22.1875 -46.640625 C 24.519531 -44.953125 28.28125 -43.414062 33.46875 -42.03125 C 40.914062 -40.050781 46.601562 -37.394531 50.53125 -34.0625 C 54.46875 -30.726562 56.4375 -25.863281 56.4375 -19.46875 C 56.4375 -12.375 53.882812 -7.070312 48.78125 -3.5625 C 43.675781 -0.0625 37.492188 1.6875 30.234375 1.6875 Z M 30.234375 1.6875 "/></g></g></g><g fill="#b52b2b" fill-opacity="0.4"><g transform="translate(181.698626, 279.640333)"><g><path d="M 5.078125 -1.109375 C 11.421875 -7.878906 15.769531 -17.160156 18.125 -28.953125 L 36.90625 -125.765625 C 37.644531 -129.148438 38.015625 -132.984375 38.015625 -137.265625 C 38.015625 -143.890625 36.835938 -149.335938 34.484375 -153.609375 L 34.703125 -154.71875 L 82 -154.71875 L 81.78125 -153.609375 C 75.445312 -146.835938 71.097656 -137.554688 68.734375 -125.765625 L 60.34375 -82.4375 L 122.453125 -82.4375 L 130.84375 -125.765625 C 131.582031 -129.148438 131.953125 -132.984375 131.953125 -137.265625 C 131.953125 -143.890625 130.773438 -149.335938 128.421875 -153.609375 L 128.640625 -154.71875 L 175.9375 -154.71875 L 175.71875 -153.609375 C 169.382812 -146.835938 165.035156 -137.554688 162.671875 -125.765625 L 143.890625 -28.953125 C 143.148438 -25.710938 142.78125 -21.882812 142.78125 -17.46875 C 142.78125 -10.832031 143.960938 -5.378906 146.328125 -1.109375 L 146.109375 0 L 98.796875 0 L 99.015625 -1.109375 C 105.359375 -7.878906 109.707031 -17.160156 112.0625 -28.953125 L 121.34375 -76.921875 L 59.234375 -76.921875 L 49.953125 -28.953125 C 49.210938 -25.710938 48.84375 -21.882812 48.84375 -17.46875 C 48.84375 -10.832031 50.023438 -5.378906 52.390625 -1.109375 L 52.15625 0 L 4.859375 0 Z M 5.078125 -1.109375 "/></g></g></g><g fill="#b52b2b" fill-opacity="1"><g transform="translate(175.837208, 273.778913)"><g><path d="M 5.078125 -1.109375 C 11.421875 -7.878906 15.769531 -17.160156 18.125 -28.953125 L 36.90625 -125.765625 C 37.644531 -129.148438 38.015625 -132.984375 38.015625 -137.265625 C 38.015625 -143.890625 36.835938 -149.335938 34.484375 -153.609375 L 34.703125 -154.71875 L 82 -154.71875 L 81.78125 -153.609375 C 75.445312 -146.835938 71.097656 -137.554688 68.734375 -125.765625 L 60.34375 -82.4375 L 122.453125 -82.4375 L 130.84375 -125.765625 C 131.582031 -129.148438 131.953125 -132.984375 131.953125 -137.265625 C 131.953125 -143.890625 130.773438 -149.335938 128.421875 -153.609375 L 128.640625 -154.71875 L 175.9375 -154.71875 L 175.71875 -153.609375 C 169.382812 -146.835938 165.035156 -137.554688 162.671875 -125.765625 L 143.890625 -28.953125 C 143.148438 -25.710938 142.78125 -21.882812 142.78125 -17.46875 C 142.78125 -10.832031 143.960938 -5.378906 146.328125 -1.109375 L 146.109375 0 L 98.796875 0 L 99.015625 -1.109375 C 105.359375 -7.878906 109.707031 -17.160156 112.0625 -28.953125 L 121.34375 -76.921875 L 59.234375 -76.921875 L 49.953125 -28.953125 C 49.210938 -25.710938 48.84375 -21.882812 48.84375 -17.46875 C 48.84375 -10.832031 50.023438 -5.378906 52.390625 -1.109375 L 52.15625 0 L 4.859375 0 Z M 5.078125 -1.109375 "/></g></g></g><g fill="#b52b2b" fill-opacity="0.4"><g transform="translate(291.054664, 430.232641)"><g><path d="M 5.078125 -1.109375 C 11.421875 -7.878906 15.769531 -17.160156 18.125 -28.953125 L 36.90625 -125.765625 C 37.644531 -129.148438 38.015625 -132.984375 38.015625 -137.265625 C 38.015625 -143.890625 36.835938 -149.335938 34.484375 -153.609375 L 34.703125 -154.71875 L 82 -154.71875 L 81.78125 -153.609375 C 75.445312 -146.835938 71.097656 -137.554688 68.734375 -125.765625 L 60.34375 -82.4375 L 122.453125 -82.4375 L 130.84375 -125.765625 C 131.582031 -129.148438 131.953125 -132.984375 131.953125 -137.265625 C 131.953125 -143.890625 130.773438 -149.335938 128.421875 -153.609375 L 128.640625 -154.71875 L 175.9375 -154.71875 L 175.71875 -153.609375 C 169.382812 -146.835938 165.035156 -137.554688 162.671875 -125.765625 L 143.890625 -28.953125 C 143.148438 -25.710938 142.78125 -21.882812 142.78125 -17.46875 C 142.78125 -10.832031 143.960938 -5.378906 146.328125 -1.109375 L 146.109375 0 L 98.796875 0 L 99.015625 -1.109375 C 105.359375 -7.878906 109.707031 -17.160156 112.0625 -28.953125 L 121.34375 -76.921875 L 59.234375 -76.921875 L 49.953125 -28.953125 C 49.210938 -25.710938 48.84375 -21.882812 48.84375 -17.46875 C 48.84375 -10.832031 50.023438 -5.378906 52.390625 -1.109375 L 52.15625 0 L 4.859375 0 Z M 5.078125 -1.109375 "/></g></g></g><g fill="#b52b2b" fill-opacity="1"><g transform="translate(285.193253, 424.371228)"><g><path d="M 5.078125 -1.109375 C 11.421875 -7.878906 15.769531 -17.160156 18.125 -28.953125 L 36.90625 -125.765625 C 37.644531 -129.148438 38.015625 -132.984375 38.015625 -137.265625 C 38.015625 -143.890625 36.835938 -149.335938 34.484375 -153.609375 L 34.703125 -154.71875 L 82 -154.71875 L 81.78125 -153.609375 C 75.445312 -146.835938 71.097656 -137.554688 68.734375 -125.765625 L 60.34375 -82.4375 L 122.453125 -82.4375 L 130.84375 -125.765625 C 131.582031 -129.148438 131.953125 -132.984375 131.953125 -137.265625 C 131.953125 -143.890625 130.773438 -149.335938 128.421875 -153.609375 L 128.640625 -154.71875 L 175.9375 -154.71875 L 175.71875 -153.609375 C 169.382812 -146.835938 165.035156 -137.554688 162.671875 -125.765625 L 143.890625 -28.953125 C 143.148438 -25.710938 142.78125 -21.882812 142.78125 -17.46875 C 142.78125 -10.832031 143.960938 -5.378906 146.328125 -1.109375 L 146.109375 0 L 98.796875 0 L 99.015625 -1.109375 C 105.359375 -7.878906 109.707031 -17.160156 112.0625 -28.953125 L 121.34375 -76.921875 L 59.234375 -76.921875 L 49.953125 -28.953125 C 49.210938 -25.710938 48.84375 -21.882812 48.84375 -17.46875 C 48.84375 -10.832031 50.023438 -5.378906 52.390625 -1.109375 L 52.15625 0 L 4.859375 0 Z M 5.078125 -1.109375 "/></g></g></g></svg>